Coordinates
version=1
nRows=10
nColumns=40
inDegrees=yes

Units are S.I. units (second, meters, Newtons, ...)
Angles are in degrees.

endheader
time	pelvis_tilt	pelvis_list	pelvis_rotation	pelvis_tx	pelvis_ty	pelvis_tz	hip_flexion_r	hip_adduction_r	hip_rotation_r	knee_angle_r	knee_angle_r_beta	ankle_angle_r	subtalar_angle_r	mtp_angle_r	hip_flexion_l	hip_adduction_l	hip_rotation_l	knee_angle_l	knee_angle_l_beta	ankle_angle_l	subtalar_angle_l	mtp_angle_l	lumbar_extension	lumbar_bending	lumbar_rotation	arm_flex_r	arm_add_r	arm_rot_r	elbow_flex_r	pro_sup_r	wrist_flex_r	wrist_dev_r	arm_flex_l	arm_add_l	arm_rot_l	elbow_flex_l	pro_sup_l	wrist_flex_l	wrist_dev_l
     57.83500000	     -4.75816373	     -6.12988766	     -1.90597406	      1.11906154	      0.91705444	      0.48949702	     24.14715099	      2.27105172	    -12.02931408	     23.29073630	     23.29073630	      5.17180717	     -2.97581628	     -1.05589602	      1.18122818	    -12.94055566	    -10.82949109	     38.82454000	     38.82454000	      9.47677198	    -12.90809038	    -14.24920044	     -9.36936298	      8.80783222	      1.67926868	    -13.37917469	     -9.50526915	    -17.47738759	     18.15952688	     47.65297472	      0.00000000	      0.00000000	     15.40723194	    -15.31521497	    -12.87567710	    100.14157133	     48.52481288	      0.00000000	      0.00000000
     57.84628571	     -4.84190321	     -6.21810334	     -1.55554600	      1.11972161	      0.91859618	      0.49187198	     23.23419244	      2.48122540	    -12.35868478	     22.72679746	     22.72679746	      5.69908033	     -2.74453422	     -1.07596493	      3.22972150	    -13.44351692	     -9.16863894	     42.66937655	     42.66937655	      6.89226363	    -14.90011200	    -13.64582139	     -9.15953588	      8.77469118	      1.55599179	    -11.95594885	     -9.47340979	    -17.36627758	     18.96803066	     47.61713406	      0.00000000	      0.00000000	     14.09532922	    -14.62602240	    -12.75057262	     98.68392565	     48.48378360	      0.00000000	      0.00000000
     57.85757143	     -4.80314637	     -6.33024307	     -1.21824426	      1.12020777	      0.92019394	      0.49411077	     22.21301597	      2.71073835	    -12.72875544	     22.19060140	     22.19060140	      6.16471262	     -2.44006175	     -1.13774326	      5.23075042	    -13.90403419	     -7.59552010	     46.45117089	     46.45117089	      4.54799908	    -16.39923285	    -12.55277736	     -9.13826801	      8.74358814	      1.49960542	    -10.30998840	     -9.45208970	    -17.23893523	     19.88366854	     47.57610787	      0.00000000	      0.00000000	     12.90031256	    -13.81339640	    -12.50076538	     97.11951289	     48.43227927	      0.00000000	      0.00000000
     57.86885714	     -4.84261405	     -6.22773188	     -0.90911300	      1.12040000	      0.92167259	      0.49598166	     21.29164916	      2.67052110	    -13.15008455	     21.65294905	     21.65294905	      6.62263185	     -1.79909629	     -1.38657504	      7.62154231	    -13.84370411	     -5.72090325	     50.59737692	     50.59737692	      4.81261034	    -16.54838044	     -5.22026984	     -8.98311984	      8.53554309	      1.82347057	     -9.39852106	     -9.51850974	    -16.07281336	     22.18250195	     47.33138678	      0.00000000	      0.00000000	     12.37109521	    -12.82376156	    -12.21506831	     93.77558695	     48.36695624	      0.00000000	      0.00000000
     57.88014286	     -4.79085343	     -6.34597908	     -0.62369722	      1.12047537	      0.92310394	      0.49803212	     20.26217411	      2.94188351	    -13.45186119	     21.06716591	     21.06716591	      7.01846661	     -1.50838021	     -1.44173578	      9.63614194	    -14.16151461	     -4.33883991	     53.84807401	     53.84807401	      2.93540483	    -17.29674049	     -4.40159487	     -9.07542743	      8.48809626	      1.88313174	     -7.45003724	     -9.57335721	    -15.92787937	     23.10267495	     47.29295686	      0.00000000	      0.00000000	     11.18031698	    -12.02194619	    -11.73410295	     92.28932829	     48.30140635	      0.00000000	      0.00000000
     57.89142857	     -4.85667349	     -6.22896438	     -0.35229335	      1.12024379	      0.92441758	      0.49964436	     19.35839038	      2.87889681	    -13.95496419	     20.44706460	     20.44706460	      7.28892430	     -0.68562225	     -1.84202887	     12.00276462	    -13.88233456	     -2.67018997	     57.22621286	     57.22621286	      3.57822875	    -17.32417736	      2.07281350	     -8.92332567	      8.29115071	      2.41377470	     -6.19606817	     -9.78764495	    -14.84711001	     24.85325164	     47.10404549	      0.00000000	      0.00000000	     11.12964165	    -11.05447164	    -11.45795124	     87.36546780	     48.19531795	      0.00000000	      0.00000000
     57.90271429	     -4.85993851	     -6.20849879	     -0.09788758	      1.11993528	      0.92564291	      0.50136410	     18.37411422	      3.01010578	    -14.22011098	     19.77667089	     19.77667089	      7.61833591	     -0.26827854	     -2.05323307	     14.15960536	    -13.84169289	     -1.43846231	     59.99145169	     59.99145169	      3.63821398	    -17.37504944	      5.63947114	     -8.89938430	      8.09581825	      2.71033353	     -4.76489241	    -10.07415138	    -13.73656467	     26.74024083	     46.91128668	      0.00000000	      0.00000000	     10.63316586	    -10.41477579	    -10.54282760	     83.87957676	     48.07273714	      0.00000000	      0.00000000
     57.91400000	     -4.80928679	     -6.23228293	      0.17676059	      1.11942393	      0.92684430	      0.50303902	     17.38417356	      3.18898112	    -14.46519438	     19.16787042	     19.16787042	      7.93083769	      0.02968662	     -2.07212960	     16.09210895	    -13.84782579	     -0.36856515	     62.05736880	     62.05736880	      2.99806554	    -17.74432712	      6.08598510	     -9.01402172	      7.94947027	      2.45901250	     -2.47838022	    -10.21895340	    -13.54012797	     27.94793394	     46.85851936	      0.00000000	      0.00000000	      9.48455921	    -10.16420939	    -10.14917504	     81.31989906	     47.99056445	      0.00000000	      0.00000000
     57.92528571	     -4.72758720	     -6.14524816	      0.41087847	      1.11869911	      0.92809444	      0.50460233	     16.38573731	      3.24308100	    -14.69524721	     18.57310855	     18.57310855	      8.20056089	      0.46969508	     -2.15578068	     17.94106173	    -13.74756681	      0.42818413	     63.69288388	     63.69288388	      3.02144667	    -17.91545634	      7.13206514	     -9.13783242	      7.69100570	      2.40451934	     -0.21711947	    -10.37458856	    -13.06305188	     29.20999390	     46.77886763	      0.00000000	      0.00000000	      9.10337993	     -9.72893929	     -9.82184209	     76.82287979	     47.88202250	      0.00000000	      0.00000000
     57.93657143	     -4.65332379	     -6.08643089	      0.68390453	      1.11776431	      0.92915515	      0.50600872	     15.46831074	      3.31287047	    -14.90265302	     18.10077757	     18.10077757	      8.51922739	      0.72762226	     -2.32732224	     19.82651217	    -13.65072986	      1.13146794	     64.95469635	     64.95469635	      3.69353680	    -18.03638347	      9.08111234	     -9.24235844	      7.48844485	      3.38336861	      1.35310768	    -10.90451313	    -12.05824897	     30.66887401	     46.63844528	      0.00000000	      0.00000000	      9.95534207	     -8.62673281	     -8.99183281	     70.73252657	     47.71801622	      0.00000000	      0.00000000
